<svg id="Capa_1" enable-background="new 0 0 512 512" height="512" viewBox="0 0 512 512" width="512" xmlns="http://www.w3.org/2000/svg"><g><path d="m274.692 248.905v-26.789c0-27.626-22.476-50.102-50.102-50.102h-54.488l9.612 76.891z"/><path d="m320.689 311.609h-62.841c-10.86 0-19.695-8.835-19.695-19.694 0-4.79 1.723-9.183 4.576-12.601h-157.609l-51.861 77.785v24.301h478.741c-12.011-35.758-43.075-62.299-80.45-68.443l-47.463-117.108c4.704 1.625 9.746 2.52 14.996 2.52h46.043v-92.099h-46.043c-7.044 0-13.72 1.595-19.695 4.434v-27.283h-58.214v30.409h27.805v76.351l16.338 64.268c3.46 13.837.41 28.221-8.368 39.465-8.78 11.246-21.996 17.695-36.26 17.695zm-150.69 30.404h-30.409v-30.409h30.409z"/><path d="m143.258 202.422h-110.403l5.81 46.483h110.403z"/><path d="m349.023 411.808c-.025.747-.047 1.495-.047 2.245 0 37.248 30.303 67.551 67.551 67.551s67.55-30.303 67.55-67.551c0-.75-.023-1.498-.047-2.245z"/><path d="m69.842 411.808c-.025.747-.047 1.495-.047 2.245 0 37.248 30.303 67.551 67.551 67.551s67.55-30.303 67.55-67.551c0-.75-.023-1.498-.047-2.245z"/><path d="m169.999 172.014v-141.618h-69.795v47.712h-30.409v-47.712h-69.795v141.618z"/></g></svg>