<svg height="512" viewBox="0 0 128 128" width="512" xmlns="http://www.w3.org/2000/svg"><g><path d="m64 6.306a30.714 30.714 0 0 0 -30.714 30.714c-.178 29.303 30.714 65.643 30.714 65.643s30.892-36.34 30.714-65.643a30.714 30.714 0 0 0 -30.714-30.714zm0 43.742a13.028 13.028 0 1 1 13.028-13.028 13.028 13.028 0 0 1 -13.028 13.028z" fill="#f45858"/><path d="m77.276 84.289a182.919 182.919 0 0 1 -13.276 18.374 182.919 182.919 0 0 1 -13.274-18.374c-21.646 2.185-37.575 9.583-37.575 18.374 0 10.51 22.767 19.03 50.851 19.03s50.851-8.52 50.851-19.03c-.002-8.791-15.931-16.19-37.577-18.374z" fill="#3ea2e5"/><g fill="#1892d6"><path d="m49.472 113.292a1.7 1.7 0 0 1 -.224-.014c-8.248-1.055-14.974-2.978-18.937-5.415a1.75 1.75 0 1 1 1.833-2.981c3.549 2.181 9.782 3.931 17.548 4.925a1.75 1.75 0 0 1 -.22 3.485z"/><path d="m64 114.178c-1.547 0-3.11-.029-4.648-.085a1.75 1.75 0 1 1 .129-3.5c2.479.091 5.019.1 7.458.048a1.73 1.73 0 0 1 1.791 1.709 1.75 1.75 0 0 1 -1.709 1.79q-1.494.038-3.021.038z"/></g></g></svg>